<?xml version="1.0" encoding="UTF-8" standalone="no"?>
<svg
   xmlns:dc="http://purl.org/dc/elements/1.1/"
   xmlns:cc="http://creativecommons.org/ns#"
   xmlns:rdf="http://www.w3.org/1999/02/22-rdf-syntax-ns#"
   xmlns:svg="http://www.w3.org/2000/svg"
   xmlns="http://www.w3.org/2000/svg"
   xmlns:sodipodi="http://sodipodi.sourceforge.net/DTD/sodipodi-0.dtd"
   xmlns:inkscape="http://www.inkscape.org/namespaces/inkscape"
   width="1600pt"
   height="900pt"
   viewBox="0 0 1600 900"
   version="1.1"
   id="svg138"
   sodipodi:docname="tbc.svg"
   inkscape:version="0.92.2 (5c3e80d, 2017-08-06)">
  <metadata
     id="metadata144">
    <rdf:RDF>
      <cc:Work
         rdf:about="">
        <dc:format>image/svg+xml</dc:format>
        <dc:type
           rdf:resource="http://purl.org/dc/dcmitype/StillImage" />
        <dc:title></dc:title>
      </cc:Work>
    </rdf:RDF>
  </metadata>
  <defs
     id="defs142" />
  <sodipodi:namedview
     pagecolor="#ffffff"
     bordercolor="#666666"
     borderopacity="1"
     objecttolerance="10"
     gridtolerance="10"
     guidetolerance="10"
     inkscape:pageopacity="0"
     inkscape:pageshadow="2"
     inkscape:window-width="1920"
     inkscape:window-height="974"
     id="namedview140"
     showgrid="false"
     inkscape:zoom="0.55825617"
     inkscape:cx="1074.1926"
     inkscape:cy="634.86409"
     inkscape:window-x="-9"
     inkscape:window-y="-9"
     inkscape:window-maximized="1"
     inkscape:current-layer="svg138" />
  <g
     id="g177"
     transform="matrix(1.6330338,0,0,1.6330338,79.264687,-662.42987)">
    <g
       transform="translate(0,790)"
       id="#fbfaf9ff">
      <path
         style="opacity:1;fill:#fbfaf9"
         inkscape:connector-curvature="0"
         id="path78"
         d="M 0,0 H 0.28 C 0.21,0.07 0.07,0.21 0,0.28 Z" />
      <path
         style="opacity:1;fill:#fbfaf9"
         inkscape:connector-curvature="0"
         id="path80"
         d="m 52.82,1.73 c 2.04,-0.66 4.22,-0.48 6.32,-0.68 0.25,8.59 -0.59,17.18 0.06,25.76 1.93,0.14 3.86,0.21 5.79,0.2 108.67,-0.05 217.35,0.07 326.03,-0.08 2.11,0.32 5.86,0.28 5.96,3.17 0.16,11.96 -0.09,23.93 0.03,35.89 -0.14,6.07 0.59,12.24 -0.83,18.21 -8.94,1.83 -18.1,0.35 -27.13,0.71 -3.82,0.05 -7.23,2.3 -11.07,2.13 C 260.32,86.95 162.65,87.03 64.99,87 c -1.92,-0.02 -3.84,0.05 -5.76,0.19 -0.91,7.1 0.22,14.23 -0.06,21.35 -1.47,0.45 -3.24,0.35 -4.42,1.46 H 54.49 C 52.46,105.85 47.2,104.31 44.27,100.74 40.7,96.03 36.21,92.13 32.05,87.94 26.2,82.8 21.51,76.41 15.23,71.76 9.26,67.99 4.39,62.73 0,57.26 V 56.87 C 3.78,52.38 6.1,46.42 11.4,43.4 21.48,36.25 28.91,26.22 37.53,17.57 43.55,13.28 48.57,7.74 52.82,1.73 M 35,26.07 C 29.11,32.82 22.74,39.12 16.09,45.1 12.98,49.49 7.78,52.24 5.34,57.02 c 7.58,7.94 16.16,14.91 23.58,23.03 0.86,1.04 1.51,2.22 2.17,3.39 4.62,3.48 9.07,7.25 12.7,11.78 2.33,3 5.73,4.93 8.16,7.85 1.09,1.4 2.79,2.03 4.3,2.87 0.33,-4.56 -0.15,-9.14 0.23,-13.69 0.51,-3.71 0.77,-7.47 0.67,-11.22 1.03,0.56 2.03,1.18 3.1,1.67 5.36,-0.4 10.66,-2.36 16.06,-1.25 14.97,0.77 29.97,1.41 44.98,1.05 10.06,1.24 20.19,0.47 30.27,-0.07 9.09,0.44 18.21,1.08 27.31,0.25 6.03,-0.77 12.07,0.63 18.11,0.39 7.98,-0.82 16.02,-0.08 24.02,-0.04 6.67,-0.47 13.37,-0.24 20.04,0.05 7,-0.7 14.05,0.28 21.04,-0.73 3,-0.59 5.92,0.63 8.92,0.68 3.88,0.61 7.69,-1.08 11.57,-0.47 2.76,0.49 5.54,0.03 8.3,-0.13 11.35,1.01 22.75,0.49 34.12,0.65 4.36,0 8.68,-0.6 13.02,-0.86 8.64,0.64 17.29,-0.11 25.96,0.02 8.13,0.68 16.31,-0.44 24.45,0.27 1.94,-0.18 4.86,0.79 5.58,-1.74 0.3,-4.74 -0.34,-9.53 0.55,-14.23 -0.81,-6.83 0.1,-13.71 -0.08,-20.56 -0.56,-5.15 0.67,-10.3 -0.05,-15.44 -16.48,-0.2 -32.96,0.46 -49.44,0.25 -4.79,0.18 -9.58,-0.75 -14.35,-0.05 -35.88,0.07 -71.74,-0.02 -107.62,0.23 -7.01,-0.15 -14.02,-0.59 -21.02,0 -10.33,0.2 -20.67,-0.21 -31,-0.19 -19.32,0.44 -38.66,-0.17 -57.97,0.15 C 94.03,30.72 75.08,30.42 56.1,30.84 56.26,25.22 56.65,19.61 56.38,13.99 56.18,10.98 57.53,7.56 55.17,5.07 47.92,11.52 40.86,18.31 35,26.07 Z" />
      <path
         style="opacity:1;fill:#fbfaf9"
         inkscape:connector-curvature="0"
         id="path82"
         d="m 415.74,26.02 c 12.4,-0.44 24.75,0.65 37.13,1.12 0.87,7.67 -1.37,15.2 -0.86,22.86 0.3,6.04 -1.57,11.95 -1.07,17.99 0.43,5.38 -0.84,10.66 -1.16,16.01 -1.52,0.55 -3.09,0.95 -4.67,1.23 -7.79,-15.06 -15.13,-30.36 -22.8,-45.49 -2.21,-4.57 -4.76,-8.98 -6.57,-13.72 m 5.47,4.58 c 3.85,10.14 10.7,18.81 14.03,29.17 3.11,6.59 6.36,13.14 9.45,19.75 0.4,1.58 4.07,1.59 3.77,-0.45 -0.71,-6.04 -0.46,-12.13 0.71,-18.1 0.17,-10.3 0.26,-20.62 0.1,-30.92 -3.77,-1.92 -8.2,-0.91 -12.25,-1.32 -5.28,0.37 -11.02,-0.99 -15.81,1.87 z" />
      <path
         style="opacity:1;fill:#fbfaf9"
         inkscape:connector-curvature="0"
         id="path84"
         d="m 457.34,27.14 c 9.54,-0.42 19.11,0.18 28.66,-0.2 v 0.98 c -9.2,17.98 -17.51,36.41 -26.62,54.43 -0.58,0.28 -1.73,0.83 -2.3,1.11 -0.09,-5.79 0.69,-11.62 -0.28,-17.37 -1.23,-11.34 -0.66,-22.75 -0.83,-34.13 0.1,-1.71 -0.4,-3.79 1.37,-4.82 m 2.79,2.68 c -0.34,0.32 -1.01,0.96 -1.34,1.28 -0.68,7.29 -0.19,14.62 -0.12,21.93 -0.57,7.25 0.01,14.51 -0.48,21.77 1.16,-0.13 2.92,0.29 3.3,-1.27 3.77,-7.36 7.96,-14.54 10.99,-22.26 4.3,-6.01 6.49,-13.16 9.93,-19.66 -1.16,-0.66 -2.32,-1.29 -3.53,-1.82 -6.26,-0.09 -12.52,-0.8 -18.75,0.03 z" />
      <path
         style="opacity:1;fill:#fbfaf9"
         inkscape:connector-curvature="0"
         id="path86"
         d="m 406.12,28.89 c 1.49,0.25 3.44,0.28 3.87,2.1 8.33,17.54 16.68,35.08 24.85,52.7 -2.91,0.67 -5.82,1.53 -8.84,1.32 -3.4,-0.26 -6.62,1.2 -10,0.99 -4.06,-0.26 -7.93,1.41 -11.99,1.05 0.02,-5.41 -0.23,-10.84 0.46,-16.22 1.18,-9.43 -0.07,-18.97 0.94,-28.41 0.45,-4.5 0.94,-9 0.71,-13.53 m 1.5,7.09 c -0.65,5.3 0.27,10.68 -0.1,16.02 0.43,7.25 -0.48,14.5 -0.04,21.76 0.13,2.41 -1.88,5.49 0.84,7.12 5.39,0.27 10.82,1.5 16.22,0.68 2.36,-0.35 5.09,0.9 6.93,-1.21 -2.9,-5.5 -4.66,-11.53 -7.82,-16.9 -4.35,-10.05 -9.12,-20 -14.71,-29.41 -0.33,0.48 -0.99,1.45 -1.32,1.94 z" />
      <path
         style="opacity:1;fill:#fbfaf9"
         inkscape:connector-curvature="0"
         id="path88"
         d="m 363.58,39.16 c 0.67,-0.12 2.02,-0.38 2.69,-0.5 -0.01,3.38 -0.46,6.81 -1.83,9.93 -1.85,4.01 -2.67,8.38 -4.04,12.55 0.33,3.69 1.5,7.25 1.91,10.93 -0.77,-0.02 -2.31,-0.08 -3.08,-0.11 -0.77,-2.51 -1.36,-5.07 -2,-7.61 -1.89,1.47 -3.58,3.19 -5.5,4.61 -3.23,-0.18 -7.07,0.08 -9.66,-2.15 -1.69,-4.31 0.2,-10.41 5.02,-11.73 3.65,-1.93 7.5,0.66 11.25,0.88 0.56,-5.96 4.45,-10.89 5.24,-16.8 m -14.2,19.14 c -1.45,0.44 -3.07,0.94 -3.78,2.41 -1.69,1.53 -0.75,4.96 1.69,4.89 3.68,0.8 6.65,-1.95 8.85,-4.5 0.97,-0.74 0.98,-2.58 -0.3,-2.98 -2,-1.29 -4.37,-0.27 -6.46,0.18 z" />
      <path
         style="opacity:1;fill:#fbfaf9"
         inkscape:connector-curvature="0"
         id="path90"
         d="m 258.13,43.17 c 0.49,-0.1 1.47,-0.29 1.96,-0.38 -0.1,2.39 -0.61,4.77 -0.5,7.17 1.83,2.03 4.87,0.79 7.26,1.16 0.15,0.74 0.46,2.24 0.62,2.99 -2.73,0.67 -5.53,0.67 -8.3,1.03 -0.04,2.8 0.08,5.61 0.35,8.41 0.93,3.78 5.7,2.02 8.5,2.56 0.01,1.22 -0.06,2.44 -0.21,3.66 -3.22,0.1 -7.05,0.47 -9.53,-2.03 -4.05,-3.22 -0.98,-9 -2.9,-13.1 -1.33,-0.42 -2.69,-0.71 -4.04,-1.03 -0.16,-0.7 -0.48,-2.09 -0.64,-2.78 2.05,-0.24 4.11,-0.22 6.16,-0.16 0.55,-2.48 0.63,-5.04 1.27,-7.5 z" />
      <path
         style="opacity:1;fill:#fbfaf9"
         inkscape:connector-curvature="0"
         id="path92"
         d="m 88.83,47.09 c 8.35,-1.09 16.94,-4.54 25.26,-1.16 0.4,1.04 0.78,2.1 1.14,3.16 -4.05,0.89 -8.07,-1.79 -12.07,0.06 -0.87,6.83 -0.13,13.72 -0.24,20.58 -0.69,0 -2.09,0.02 -2.79,0.02 -1.09,-6.86 -0.4,-13.8 -0.33,-20.69 -3.5,0.07 -6.96,0.74 -10.46,0.61 -0.13,-0.64 -0.38,-1.93 -0.51,-2.58 z" />
      <path
         style="opacity:1;fill:#fbfaf9"
         inkscape:connector-curvature="0"
         id="path94"
         d="m 141.86,44.66 c 3.17,-0.17 6.55,-0.5 9.46,1.08 3,0.99 4.2,4.16 4.9,6.96 -1.41,0.8 -2.83,1.59 -4.31,2.26 2.67,1.85 4.58,4.49 6.83,6.78 1.73,-2.44 2.69,-6.55 6.35,-6.57 3.23,-0.18 8.27,0.71 8.49,4.67 -1.53,5.38 -8.25,4.42 -12.48,5.92 1.16,1.23 1.97,3.3 4.01,3.08 3.87,0.53 7.4,-1.25 11.07,-2.08 -0.13,1.41 1.09,3.79 -0.77,4.49 -4.05,1.9 -8.74,1.77 -13.01,0.69 -1.33,-1.88 -2.67,-3.75 -4.32,-5.37 -4.82,2.1 -9.74,6.93 -15.33,4.7 -3.18,-2.75 -1.19,-7.63 -1.59,-11.29 -0.55,-5.2 2.12,-10.18 0.7,-15.32 m 3.55,3.64 c -0.32,1.86 -0.53,3.73 -0.72,5.6 2.57,2.34 5.06,-1.53 7.09,-2.86 -0.68,-0.97 -1.4,-1.91 -2.16,-2.82 -1.41,-0.02 -2.81,-0.01 -4.21,0.08 m -0.87,11.34 c -1.32,2.92 -0.64,6.25 0.74,9.02 4.07,-0.85 8.03,-2.41 11.09,-5.31 -1.92,-1.96 -3.11,-5.03 -6.06,-5.63 -2.04,-0.37 -4.43,0.31 -5.77,1.92 m 17.1,2.92 c 2.98,-0.93 7.85,-0.24 9.28,-3.42 -2.99,-3.39 -8.46,-0.45 -9.28,3.42 z" />
      <path
         style="opacity:1;fill:#fbfaf9"
         inkscape:connector-curvature="0"
         id="path96"
         d="m 195.62,59.97 c 0.1,-7.42 6.81,-15.24 14.6,-14.58 0.68,1.02 0.9,2.12 0.67,3.32 -2.31,0.64 -5.18,0.32 -6.83,2.37 -2.51,2.55 -5.21,5.35 -5.72,9.05 0.16,1.98 1.14,3.8 2.14,5.48 3.47,1.53 7.41,0.01 10.66,-1.52 2.27,-1.04 2.87,1.71 2.79,3.37 -3.4,0.65 -6.36,2.99 -9.9,2.81 -4.86,-0.52 -9.37,-5.27 -8.41,-10.3 z" />
      <path
         style="opacity:1;fill:#fbfaf9"
         inkscape:connector-curvature="0"
         id="path98"
         d="m 273.47,45.72 c 0.87,0.13 2.61,0.37 3.48,0.5 -0.04,2.39 0.29,5.5 -2.75,6.09 -0.46,-2.17 -0.68,-4.37 -0.73,-6.59 z" />
      <path
         style="opacity:1;fill:#fbfaf9"
         inkscape:connector-curvature="0"
         id="path100"
         d="m 322.25,53.32 c 1.89,-2.04 5.11,-2.5 7.7,-3.44 2.07,0.9 3.63,2.7 5.13,4.35 0.79,2.29 -0.61,4.49 -1.42,6.56 -3.35,0.95 -7.28,-0.15 -10.2,2.01 2.41,3.3 7.87,4.78 10.94,1.57 1.37,-1.58 3.19,-1.57 4.9,-0.55 -1.93,5.24 -9.08,7.46 -13.78,4.55 -1.95,-0.89 -3.9,-2.33 -4.1,-4.65 -0.25,-3.47 0.42,-6.95 0.83,-10.4 m 1.79,2.77 c 2.21,2.47 6.7,2.82 8.7,-0.09 -2.78,-1.51 -6.19,-2.45 -8.7,0.09 z" />
      <path
         style="opacity:1;fill:#fbfaf9"
         inkscape:connector-curvature="0"
         id="path102"
         d="m 114.3,53.15 c 3.76,-0.41 8.66,-2.57 11.49,1.05 2.85,2.45 1.77,6.3 0.98,9.42 -3.43,1.15 -6.96,3.8 -10.7,2.58 -5.4,-1.53 -6.06,-10.14 -1.77,-13.05 m 1.15,3.46 c -2.23,1.46 -1.18,4.2 -0.29,6.12 2.61,0.05 5.67,1.24 7.94,-0.6 1.15,-0.95 2.78,-2.25 2.15,-3.97 -1.59,-4.16 -6.58,-1.57 -9.8,-1.55 z" />
      <path
         style="opacity:1;fill:#fbfaf9"
         inkscape:connector-curvature="0"
         id="path104"
         d="m 285.32,51.95 c 2.77,0.03 2.51,3.41 3.42,5.26 2.24,-0.75 4.55,-1.26 6.93,-1.2 1.37,3.79 2.17,7.86 1.09,11.83 -1.23,0.13 -2.45,0.12 -3.68,-0.04 -0.07,-2.72 0.82,-5.34 0.88,-8.05 -4.83,-1.48 -7.52,4.5 -8.14,8.43 -0.81,0.07 -2.42,0.23 -3.23,0.31 -0.64,-3.77 1.58,-7.11 2.1,-10.75 0.24,-1.93 0.37,-3.87 0.63,-5.79 z" />
      <path
         style="opacity:1;fill:#fbfaf9"
         inkscape:connector-curvature="0"
         id="path106"
         d="m 314.42,58.99 c -0.21,-2.28 -0.67,-5.41 2.62,-5.27 0.61,3.41 0.67,7.08 -1.24,10.11 -1.6,3.94 -6.32,6.03 -10.34,4.84 -2.04,-1.52 -2.51,-4.32 -2.7,-6.69 0.48,-2.41 -0.25,-6.23 3.18,-6.31 0.37,3.27 -0.9,6.97 1.12,9.88 3.38,-0.36 7.69,-2.57 7.36,-6.56 z" />
      <path
         style="opacity:1;fill:#fbfaf9"
         inkscape:connector-curvature="0"
         id="path108"
         d="m 219.91,55.96 c 3.99,-3.42 10.46,0.09 10.62,5.07 -0.44,3.16 -2.42,5.95 -4.81,7.99 -2.29,0.63 -4.6,-0.46 -6.79,-1.04 -1.17,-3.79 -2.37,-9.09 0.98,-12.02 m 1.39,1.88 c -0.21,3.04 -1.92,6.96 1.73,8.61 2.25,-1.35 4.37,-2.97 5.54,-5.4 -2,-1.89 -4.32,-3.83 -7.27,-3.21 z" />
      <path
         style="opacity:1;fill:#fbfaf9"
         inkscape:connector-curvature="0"
         id="path110"
         d="m 232.57,56.58 c 1.82,0.04 2.71,1.44 3.55,2.84 1.98,-1.05 4.25,-2.25 6.55,-1.39 2.66,2.14 3.03,5.68 3.4,8.83 -0.69,0 -2.08,0 -2.77,0 -0.85,-2.15 -1.23,-4.44 -2.02,-6.61 -3.42,0.81 -5.35,3.61 -6.29,6.8 -0.49,-0.33 -1.45,-0.98 -1.93,-1.3 1.1,-3.07 0.35,-6.14 -0.49,-9.17 z" />
      <path
         style="opacity:1;fill:#fbfaf9"
         inkscape:connector-curvature="0"
         id="path112"
         d="m 274.58,57.1 c 0.57,0.01 1.71,0.02 2.29,0.02 0.4,3.74 0.91,8.04 -1.35,11.3 -0.61,0.16 -1.82,0.46 -2.43,0.62 0.16,-4.02 1.15,-7.94 1.49,-11.94 z" />
    </g>
    <g
       transform="translate(0,790)"
       id="#1b1916ff">
      <path
         style="opacity:1;fill:#1b1916"
         inkscape:connector-curvature="0"
         id="path115"
         d="m 35,26.07 c 5.86,-7.76 12.92,-14.55 20.17,-21 2.36,2.49 1.01,5.91 1.21,8.92 0.27,5.62 -0.12,11.23 -0.28,16.85 18.98,-0.42 37.93,-0.12 56.92,0.09 19.31,-0.32 38.65,0.29 57.97,-0.15 10.33,-0.02 20.67,0.39 31,0.19 7,-0.59 14.01,-0.15 21.02,0 35.88,-0.25 71.74,-0.16 107.62,-0.23 4.77,-0.7 9.56,0.23 14.35,0.05 16.48,0.21 32.96,-0.45 49.44,-0.25 0.72,5.14 -0.51,10.29 0.05,15.44 0.18,6.85 -0.73,13.73 0.08,20.56 -0.89,4.7 -0.25,9.49 -0.55,14.23 -0.72,2.53 -3.64,1.56 -5.58,1.74 -8.14,-0.71 -16.32,0.41 -24.45,-0.27 -8.67,-0.13 -17.32,0.62 -25.96,-0.02 -4.34,0.26 -8.66,0.86 -13.02,0.86 -11.37,-0.16 -22.77,0.36 -34.12,-0.65 -2.76,0.16 -5.54,0.62 -8.3,0.13 -3.88,-0.61 -7.69,1.08 -11.57,0.47 -3,-0.05 -5.92,-1.27 -8.92,-0.68 -6.99,1.01 -14.04,0.03 -21.04,0.73 -6.67,-0.29 -13.37,-0.52 -20.04,-0.05 -8,-0.04 -16.04,-0.78 -24.02,0.04 -6.04,0.24 -12.08,-1.16 -18.11,-0.39 -9.1,0.83 -18.22,0.19 -27.31,-0.25 -10.08,0.54 -20.21,1.31 -30.27,0.07 -15.01,0.36 -30.01,-0.28 -44.98,-1.05 -5.4,-1.11 -10.7,0.85 -16.06,1.25 -1.07,-0.49 -2.07,-1.11 -3.1,-1.67 0.1,3.75 -0.16,7.51 -0.67,11.22 -0.38,4.55 0.1,9.13 -0.23,13.69 -1.51,-0.84 -3.21,-1.47 -4.3,-2.87 -2.43,-2.92 -5.83,-4.85 -8.16,-7.85 C 40.16,90.69 35.71,86.92 31.09,83.44 30.43,82.27 29.78,81.09 28.92,80.05 21.5,71.93 12.92,64.96 5.34,57.02 7.78,52.24 12.98,49.49 16.09,45.1 22.74,39.12 29.11,32.82 35,26.07 m 328.58,13.09 c -0.79,5.91 -4.68,10.84 -5.24,16.8 -3.75,-0.22 -7.6,-2.81 -11.25,-0.88 -4.82,1.32 -6.71,7.42 -5.02,11.73 2.59,2.23 6.43,1.97 9.66,2.15 1.92,-1.42 3.61,-3.14 5.5,-4.61 0.64,2.54 1.23,5.1 2,7.61 0.77,0.03 2.31,0.09 3.08,0.11 -0.41,-3.68 -1.58,-7.24 -1.91,-10.93 1.37,-4.17 2.19,-8.54 4.04,-12.55 1.37,-3.12 1.82,-6.55 1.83,-9.93 -0.67,0.12 -2.02,0.38 -2.69,0.5 m -105.45,4.01 c -0.64,2.46 -0.72,5.02 -1.27,7.5 -2.05,-0.06 -4.11,-0.08 -6.16,0.16 0.16,0.69 0.48,2.08 0.64,2.78 1.35,0.32 2.71,0.61 4.04,1.03 1.92,4.1 -1.15,9.88 2.9,13.1 2.48,2.5 6.31,2.13 9.53,2.03 0.15,-1.22 0.22,-2.44 0.21,-3.66 -2.8,-0.54 -7.57,1.22 -8.5,-2.56 -0.27,-2.8 -0.39,-5.61 -0.35,-8.41 2.77,-0.36 5.57,-0.36 8.3,-1.03 -0.16,-0.75 -0.47,-2.25 -0.62,-2.99 -2.39,-0.37 -5.43,0.87 -7.26,-1.16 -0.11,-2.4 0.4,-4.78 0.5,-7.17 -0.49,0.09 -1.47,0.28 -1.96,0.38 m -169.3,3.92 c 0.13,0.65 0.38,1.94 0.51,2.58 3.5,0.13 6.96,-0.54 10.46,-0.61 -0.07,6.89 -0.76,13.83 0.33,20.69 0.7,0 2.1,-0.02 2.79,-0.02 0.11,-6.86 -0.63,-13.75 0.24,-20.58 4,-1.85 8.02,0.83 12.07,-0.06 -0.36,-1.06 -0.74,-2.12 -1.14,-3.16 -8.32,-3.38 -16.91,0.07 -25.26,1.16 m 53.03,-2.43 c 1.42,5.14 -1.25,10.12 -0.7,15.32 0.4,3.66 -1.59,8.54 1.59,11.29 5.59,2.23 10.51,-2.6 15.33,-4.7 1.65,1.62 2.99,3.49 4.32,5.37 4.27,1.08 8.96,1.21 13.01,-0.69 1.86,-0.7 0.64,-3.08 0.77,-4.49 -3.67,0.83 -7.2,2.61 -11.07,2.08 -2.04,0.22 -2.85,-1.85 -4.01,-3.08 4.23,-1.5 10.95,-0.54 12.48,-5.92 -0.22,-3.96 -5.26,-4.85 -8.49,-4.67 -3.66,0.02 -4.62,4.13 -6.35,6.57 -2.25,-2.29 -4.16,-4.93 -6.83,-6.78 1.48,-0.67 2.9,-1.46 4.31,-2.26 -0.7,-2.8 -1.9,-5.97 -4.9,-6.96 -2.91,-1.58 -6.29,-1.25 -9.46,-1.08 m 53.76,15.31 c -0.96,5.03 3.55,9.78 8.41,10.3 3.54,0.18 6.5,-2.16 9.9,-2.81 0.08,-1.66 -0.52,-4.41 -2.79,-3.37 -3.25,1.53 -7.19,3.05 -10.66,1.52 -1,-1.68 -1.98,-3.5 -2.14,-5.48 0.51,-3.7 3.21,-6.5 5.72,-9.05 1.65,-2.05 4.52,-1.73 6.83,-2.37 0.23,-1.2 0.01,-2.3 -0.67,-3.32 -7.79,-0.66 -14.5,7.16 -14.6,14.58 m 77.85,-14.25 c 0.05,2.22 0.27,4.42 0.73,6.59 3.04,-0.59 2.71,-3.7 2.75,-6.09 -0.87,-0.13 -2.61,-0.37 -3.48,-0.5 m 48.78,7.6 c -0.41,3.45 -1.08,6.93 -0.83,10.4 0.2,2.32 2.15,3.76 4.1,4.65 4.7,2.91 11.85,0.69 13.78,-4.55 -1.71,-1.02 -3.53,-1.03 -4.9,0.55 -3.07,3.21 -8.53,1.73 -10.94,-1.57 2.92,-2.16 6.85,-1.06 10.2,-2.01 0.81,-2.07 2.21,-4.27 1.42,-6.56 -1.5,-1.65 -3.06,-3.45 -5.13,-4.35 -2.59,0.94 -5.81,1.4 -7.7,3.44 M 114.3,53.15 c -4.29,2.91 -3.63,11.52 1.77,13.05 3.74,1.22 7.27,-1.43 10.7,-2.58 0.79,-3.12 1.87,-6.97 -0.98,-9.42 -2.83,-3.62 -7.73,-1.46 -11.49,-1.05 m 171.02,-1.2 c -0.26,1.92 -0.39,3.86 -0.63,5.79 -0.52,3.64 -2.74,6.98 -2.1,10.75 0.81,-0.08 2.42,-0.24 3.23,-0.31 0.62,-3.93 3.31,-9.91 8.14,-8.43 -0.06,2.71 -0.95,5.33 -0.88,8.05 1.23,0.16 2.45,0.17 3.68,0.04 1.08,-3.97 0.28,-8.04 -1.09,-11.83 -2.38,-0.06 -4.69,0.45 -6.93,1.2 -0.91,-1.85 -0.65,-5.23 -3.42,-5.26 m 29.1,7.04 c 0.33,3.99 -3.98,6.2 -7.36,6.56 -2.02,-2.91 -0.75,-6.61 -1.12,-9.88 -3.43,0.08 -2.7,3.9 -3.18,6.31 0.19,2.37 0.66,5.17 2.7,6.69 4.02,1.19 8.74,-0.9 10.34,-4.84 1.91,-3.03 1.85,-6.7 1.24,-10.11 -3.29,-0.14 -2.83,2.99 -2.62,5.27 m -94.51,-3.03 c -3.35,2.93 -2.15,8.23 -0.98,12.02 2.19,0.58 4.5,1.67 6.79,1.04 2.39,-2.04 4.37,-4.83 4.81,-7.99 -0.16,-4.98 -6.63,-8.49 -10.62,-5.07 m 12.66,0.62 c 0.84,3.03 1.59,6.1 0.49,9.17 0.48,0.32 1.44,0.97 1.93,1.3 0.94,-3.19 2.87,-5.99 6.29,-6.8 0.79,2.17 1.17,4.46 2.02,6.61 0.69,0 2.08,0 2.77,0 -0.37,-3.15 -0.74,-6.69 -3.4,-8.83 -2.3,-0.86 -4.57,0.34 -6.55,1.39 -0.84,-1.4 -1.73,-2.8 -3.55,-2.84 m 42.01,0.52 c -0.34,4 -1.33,7.92 -1.49,11.94 0.61,-0.16 1.82,-0.46 2.43,-0.62 2.26,-3.26 1.75,-7.56 1.35,-11.3 -0.58,0 -1.72,-0.01 -2.29,-0.02 z" />
      <path
         style="opacity:1;fill:#1b1916"
         inkscape:connector-curvature="0"
         id="path117"
         d="m 421.21,30.6 c 4.79,-2.86 10.53,-1.5 15.81,-1.87 4.05,0.41 8.48,-0.6 12.25,1.32 0.16,10.3 0.07,20.62 -0.1,30.92 -1.17,5.97 -1.42,12.06 -0.71,18.1 0.3,2.04 -3.37,2.03 -3.77,0.45 C 441.6,72.91 438.35,66.36 435.24,59.77 431.91,49.41 425.06,40.74 421.21,30.6 Z" />
      <path
         style="opacity:1;fill:#1b1916"
         inkscape:connector-curvature="0"
         id="path119"
         d="m 460.13,29.82 c 6.23,-0.83 12.49,-0.12 18.75,-0.03 1.21,0.53 2.37,1.16 3.53,1.82 -3.44,6.5 -5.63,13.65 -9.93,19.66 -3.03,7.72 -7.22,14.9 -10.99,22.26 -0.38,1.56 -2.14,1.14 -3.3,1.27 0.49,-7.26 -0.09,-14.52 0.48,-21.77 -0.07,-7.31 -0.56,-14.64 0.12,-21.93 0.33,-0.32 1,-0.96 1.34,-1.28 z" />
      <path
         style="opacity:1;fill:#1b1916"
         inkscape:connector-curvature="0"
         id="path121"
         d="m 407.62,35.98 c 0.33,-0.49 0.99,-1.46 1.32,-1.94 5.59,9.41 10.36,19.36 14.71,29.41 3.16,5.37 4.92,11.4 7.82,16.9 -1.84,2.11 -4.57,0.86 -6.93,1.21 -5.4,0.82 -10.83,-0.41 -16.22,-0.68 -2.72,-1.63 -0.71,-4.71 -0.84,-7.12 -0.44,-7.26 0.47,-14.51 0.04,-21.76 0.37,-5.34 -0.55,-10.72 0.1,-16.02 z" />
      <path
         style="opacity:1;fill:#1b1916"
         inkscape:connector-curvature="0"
         id="path123"
         d="m 145.41,48.3 c 1.4,-0.09 2.8,-0.1 4.21,-0.08 0.76,0.91 1.48,1.85 2.16,2.82 -2.03,1.33 -4.52,5.2 -7.09,2.86 0.19,-1.87 0.4,-3.74 0.72,-5.6 z" />
      <path
         style="opacity:1;fill:#1b1916"
         inkscape:connector-curvature="0"
         id="path125"
         d="m 324.04,56.09 c 2.51,-2.54 5.92,-1.6 8.7,-0.09 -2,2.91 -6.49,2.56 -8.7,0.09 z" />
      <path
         style="opacity:1;fill:#1b1916"
         inkscape:connector-curvature="0"
         id="path127"
         d="m 115.45,56.61 c 3.22,-0.02 8.21,-2.61 9.8,1.55 0.63,1.72 -1,3.02 -2.15,3.97 -2.27,1.84 -5.33,0.65 -7.94,0.6 -0.89,-1.92 -1.94,-4.66 0.29,-6.12 z" />
      <path
         style="opacity:1;fill:#1b1916"
         inkscape:connector-curvature="0"
         id="path129"
         d="m 144.54,59.64 c 1.34,-1.61 3.73,-2.29 5.77,-1.92 2.95,0.6 4.14,3.67 6.06,5.63 -3.06,2.9 -7.02,4.46 -11.09,5.31 -1.38,-2.77 -2.06,-6.1 -0.74,-9.02 z" />
      <path
         style="opacity:1;fill:#1b1916"
         inkscape:connector-curvature="0"
         id="path131"
         d="m 161.64,62.56 c 0.82,-3.87 6.29,-6.81 9.28,-3.42 -1.43,3.18 -6.3,2.49 -9.28,3.42 z" />
      <path
         style="opacity:1;fill:#1b1916"
         inkscape:connector-curvature="0"
         id="path133"
         d="m 221.3,57.84 c 2.95,-0.62 5.27,1.32 7.27,3.21 -1.17,2.43 -3.29,4.05 -5.54,5.4 -3.65,-1.65 -1.94,-5.57 -1.73,-8.61 z" />
      <path
         style="opacity:1;fill:#1b1916"
         inkscape:connector-curvature="0"
         id="path135"
         d="m 349.38,58.3 c 2.09,-0.45 4.46,-1.47 6.46,-0.18 1.28,0.4 1.27,2.24 0.3,2.98 -2.2,2.55 -5.17,5.3 -8.85,4.5 -2.44,0.07 -3.38,-3.36 -1.69,-4.89 0.71,-1.47 2.33,-1.97 3.78,-2.41 z" />
    </g>
  </g>
</svg>
